<svg width="368" height="298" viewBox="0 0 368 298" fill="none" xmlns="http://www.w3.org/2000/svg">
<path d="M165.21 2.9961L56.915 111.291C55.8024 112.398 55.1843 113.904 55.1843 115.472L55.1899 292.15C55.1899 294.005 56.6846 295.499 58.5389 295.499H235.217C236.785 295.499 238.291 294.876 239.398 293.763L347.688 185.473C348.452 184.709 348.811 183.625 348.637 182.557C341.625 138.808 321.256 96.828 287.553 63.1251C253.856 29.4335 211.876 9.05901 168.126 2.04087C167.059 1.8723 165.974 2.23191 165.21 2.9961Z" fill="#FF788F" stroke="white" stroke-width="2" stroke-miterlimit="10"/>
<mask id="mask0" mask-type="alpha" maskUnits="userSpaceOnUse" x="19" y="2" width="330" height="294">
<path d="M165.211 2.99566L56.9156 111.291C55.803 112.398 55.185 113.904 55.185 115.471L19 185.473L55.1906 292.15C55.1906 294.004 56.6852 295.499 58.5395 295.499H235.218C236.786 295.499 238.292 294.875 239.399 293.763L347.688 185.473C348.452 184.709 348.812 183.624 348.638 182.557C341.625 138.807 321.256 96.8275 287.554 63.1247C301.207 49.5952 306.031 24.3467 262.282 17.3286C175.46 0.550709 165.975 2.23148 165.211 2.99566Z" fill="#FF97A9"/>
</mask>
<g mask="url(#mask0)">
<path d="M334.472 205.37L352.11 181.764L340.44 144.415L335.248 143.639L334.472 205.37Z" fill="white" stroke="white" stroke-width="1.2" stroke-miterlimit="10" stroke-linecap="round" stroke-linejoin="round"/>
<path d="M252.457 173.427L132.401 269.529L58.1794 191.407C55.7801 188.885 56.1003 184.833 58.8705 182.715L169.211 98.3848C171.532 96.6092 174.802 96.8171 176.881 98.868L252.457 173.427Z" fill="#FF788F"/>
<path d="M182.707 104.621L63.0723 196.559L58.195 191.423C55.7957 188.9 56.116 184.849 58.8861 182.731L169.227 98.395C171.547 96.6194 174.818 96.8273 176.897 98.8783L182.707 104.621Z" fill="black"/>
<path d="M252.457 173.427L132.401 269.529L58.1794 191.407C55.7801 188.885 56.1003 184.833 58.8705 182.715L169.211 98.3848C171.532 96.6092 174.802 96.8171 176.881 98.868L252.457 173.427Z" stroke="black" stroke-width="1.2" stroke-miterlimit="10" stroke-linecap="round" stroke-linejoin="round"/>
<path d="M236.836 174.095L116.774 270.191L42.5583 192.076C40.159 189.553 40.4793 185.502 43.2494 183.383L153.59 99.0531C155.911 97.2775 159.181 97.4854 161.26 99.5364L236.836 174.095Z" fill="#FF788F"/>
<path d="M167.086 105.284L47.4515 197.228L42.5742 192.092C40.1748 189.569 40.4951 185.518 43.2653 183.399L153.606 99.0638C155.926 97.2882 159.197 97.4961 161.276 99.547L167.086 105.284Z" fill="black"/>
<path d="M236.836 174.095L116.774 270.191L42.5583 192.076C40.159 189.553 40.4793 185.502 43.2494 183.383L153.59 99.0531C155.911 97.2775 159.181 97.4854 161.26 99.5364L236.836 174.095Z" stroke="black" stroke-width="1.2" stroke-miterlimit="10" stroke-linecap="round" stroke-linejoin="round"/>
<path d="M220.226 171.387C180.146 203.421 140.352 235.455 100.828 267.483C75.6882 241.45 50.7229 215.406 25.9487 189.367C23.5438 186.839 23.8641 182.793 26.6342 180.675C63.4107 152.563 100.412 124.457 137.627 96.3446C139.975 94.569 143.246 94.7769 145.291 96.8279C170.099 121.681 195.081 146.534 220.226 171.387Z" fill="white" stroke="black" stroke-width="1.2" stroke-miterlimit="10" stroke-linecap="round" stroke-linejoin="round"/>
<path d="M151.032 102.576C110.716 133.222 70.6577 163.873 30.8526 194.519C29.2231 192.806 27.5936 191.097 25.9641 189.384C23.5592 186.861 23.8794 182.809 26.6496 180.691C63.4317 152.579 100.433 124.467 137.642 96.3553C139.991 94.5797 143.255 94.7876 145.306 96.8385C147.211 98.7546 149.122 100.665 151.032 102.576Z" fill="black"/>
<path d="M36.6246 181.546C37.7428 182.715 37.5967 184.474 36.2987 185.468C35.0007 186.468 33.034 186.322 31.9159 185.154C30.7977 183.979 30.9494 182.226 32.2474 181.231C33.551 180.237 35.512 180.377 36.6246 181.546Z" fill="white"/>
<path d="M43.4407 176.331C44.5589 177.5 44.4128 179.247 43.1204 180.242C41.8224 181.236 39.867 181.096 38.7488 179.927C37.6306 178.758 37.7767 177.011 39.0747 176.016C40.3671 175.022 42.3225 175.162 43.4407 176.331Z" fill="#FF788F"/>
<path d="M50.2339 171.128C51.3521 172.291 51.2116 174.039 49.9193 175.028C48.6269 176.017 46.6715 175.876 45.5533 174.713C44.4351 173.55 44.5812 171.802 45.8736 170.813C47.1659 169.825 49.1157 169.965 50.2339 171.128Z" fill="#FF788F"/>
<path d="M128.625 190.053C111.111 203.842 93.6525 217.637 76.2448 231.426C66.2992 221.092 56.3873 210.754 46.4978 200.42C63.9561 186.89 81.4649 173.359 99.0187 159.828C108.858 169.903 118.73 179.978 128.625 190.053Z" fill="#FF788F" stroke="white" stroke-width="1.2" stroke-miterlimit="10" stroke-linecap="round" stroke-linejoin="round"/>
<path d="M130.776 135.396C138.576 129.407 146.386 123.417 154.202 117.427" stroke="black" stroke-width="1.2" stroke-miterlimit="10" stroke-linecap="round" stroke-linejoin="round"/>
<path d="M105.401 154.906C111.52 150.197 117.639 145.483 123.769 140.774" stroke="black" stroke-width="1.2" stroke-miterlimit="10" stroke-linecap="round" stroke-linejoin="round"/>
<path d="M144.897 137.526C150.427 133.261 155.961 128.991 161.502 124.726" stroke="black" stroke-width="1.2" stroke-miterlimit="10" stroke-linecap="round" stroke-linejoin="round"/>
<path d="M112.734 162.391C120.893 156.075 129.057 149.759 137.239 143.443" stroke="black" stroke-width="1.2" stroke-miterlimit="10" stroke-linecap="round" stroke-linejoin="round"/>
<path d="M136.575 157.098C147.313 148.753 158.068 140.409 168.845 132.065" stroke="black" stroke-width="1.2" stroke-miterlimit="10" stroke-linecap="round" stroke-linejoin="round"/>
<path d="M120.113 169.903C123.175 167.52 126.237 165.138 129.3 162.755" stroke="black" stroke-width="1.2" stroke-miterlimit="10" stroke-linecap="round" stroke-linejoin="round"/>
<path d="M160.159 151.961C165.514 147.786 170.869 143.611 176.229 139.436" stroke="black" stroke-width="1.2" stroke-miterlimit="10" stroke-linecap="round" stroke-linejoin="round"/>
<path d="M127.529 177.455C134.654 171.875 141.79 166.301 148.932 160.722" stroke="black" stroke-width="1.2" stroke-miterlimit="10" stroke-linecap="round" stroke-linejoin="round"/>
<path d="M127.299 208.067C129.08 206.651 130.861 205.241 132.642 203.825" stroke="#FF788F" stroke-width="1.2" stroke-miterlimit="10" stroke-linecap="round" stroke-linejoin="round"/>
<path d="M85.6562 241.203C96.6864 232.403 107.739 223.604 118.814 214.805" stroke="#FF788F" stroke-width="1.2" stroke-miterlimit="10" stroke-linecap="round" stroke-linejoin="round"/>
<path d="M92.6516 248.452C104.873 238.652 117.122 228.853 129.394 219.053" stroke="#FF788F" stroke-width="1.2" stroke-miterlimit="10" stroke-linecap="round" stroke-linejoin="round"/>
<path d="M110.02 196.745C98.0513 195.925 86.0828 195.11 74.1143 194.29C73.322 204.994 72.5579 215.704 71.8274 226.408" stroke="white" stroke-width="1.2" stroke-miterlimit="10" stroke-linecap="round" stroke-linejoin="round"/>
<path d="M124.095 185.693C115.936 185.137 107.772 184.58 99.6131 184.024C99.3378 188.013 99.0737 191.997 98.8096 195.987" stroke="white" stroke-width="1.2" stroke-miterlimit="10" stroke-linecap="round" stroke-linejoin="round"/>
<path d="M94.3425 175.09C95.6349 176.421 95.5057 178.416 94.0447 179.551C92.5838 180.686 90.3474 180.523 89.0494 179.191C87.7571 177.86 87.8919 175.859 89.3529 174.73C90.8194 173.601 93.0502 173.758 94.3425 175.09Z" fill="white"/>
<path d="M145.404 198.234C147.876 197.492 152.669 195.621 156.316 190.957C161.603 184.198 161.564 175.303 158.991 169.442C158.884 169.2 156.602 164.07 154.861 164.402C153.388 164.683 152.534 168.83 153.276 172.201C154.181 176.32 158.047 181.984 163.227 181.377C168.751 180.725 172.206 173.364 170.661 170.06C170.088 168.83 168.616 167.723 167.835 168.037C166.908 168.419 166.543 171.01 167.835 172.521C168.846 173.707 170.813 173.993 171.959 173.37C173.982 172.274 174.28 167.908 172.605 162.474" stroke="#FF788F" stroke-width="1.2" stroke-miterlimit="10" stroke-linecap="round" stroke-linejoin="round"/>
<path d="M205.409 162.137C205.65 164.317 206.78 172.06 213.039 176.162C213.685 176.583 218.608 179.736 220.934 178.005C223.041 176.437 222.603 171.172 219.355 164.862C219.125 164.385 216.298 157.125 213.567 160.075C213.174 160.507 205.409 162.137 205.409 162.137Z" fill="#FF788F" stroke="black" stroke-width="1.2" stroke-miterlimit="10" stroke-linecap="round" stroke-linejoin="round"/>
<path d="M200.806 159.828C209.145 173.623 224.383 173.606 226.468 171.381C227.974 169.78 226.114 165.02 220.894 157.103C214.943 154.018 208.998 150.934 203.048 147.843L200.806 159.828Z" fill="#FF788F" stroke="black" stroke-width="1.2" stroke-miterlimit="10" stroke-linecap="round" stroke-linejoin="round"/>
<path d="M237.886 110.909L208.83 105.616L187.495 117.422L181.881 132.885C183.162 137.908 184.449 142.937 185.73 147.961C187.332 169.903 192.951 171.701 196.154 170.898C198.665 170.268 201.222 165.936 202.087 162.879C203.189 158.991 202.351 155.715 201.93 154.378C204.695 152.198 207.459 150.017 210.224 147.843L235.79 140.774L241.87 123.58L237.886 110.909Z" fill="#FF788F" stroke="black" stroke-width="1.2" stroke-miterlimit="10" stroke-linecap="round" stroke-linejoin="round"/>
<path d="M181.528 143.483C200.891 121.507 220.265 98.2609 239.634 76.2007C243.545 79.9317 247.456 83.6627 251.367 87.3657C230.644 107.931 209.91 129.952 189.187 150.759C187.153 152.046 185.113 153.327 183.079 154.597C181.202 153.232 179.331 151.866 177.454 150.501C178.814 148.169 180.174 145.831 181.528 143.483Z" fill="black"/>
<path d="M201.177 119.731C202.132 118.697 205.183 119.972 207.993 122.568C210.802 125.164 212.308 128.114 211.353 129.143" fill="black"/>
<path d="M201.177 119.731C202.132 118.697 205.183 119.972 207.993 122.568C210.802 125.164 212.308 128.114 211.353 129.143" stroke="#FF788F" stroke-width="1.2" stroke-miterlimit="10" stroke-linecap="round" stroke-linejoin="round"/>
<path d="M269.998 43.6938L239.465 75.5367C238.111 76.9527 239.909 80.7961 243.494 84.1114C247.079 87.4266 251.051 88.9212 252.355 87.4603L281.737 54.5497L269.998 43.6938Z" fill="black"/>
<path d="M176.308 157.945L173.026 161.491C172.728 161.817 172.223 161.834 171.897 161.536L171.852 161.496C171.526 161.199 171.509 160.693 171.807 160.367L175.088 156.821L176.308 157.945Z" fill="black"/>
<path d="M181.517 143.381L181.505 143.37L181.427 143.505C181.455 143.46 181.483 143.421 181.517 143.381Z" fill="black"/>
<path d="M189.214 150.506L189.203 150.495C189.169 150.534 189.124 150.562 189.085 150.596L189.214 150.506Z" fill="black"/>
<path d="M183.915 148.494C181.954 146.679 180.892 144.595 181.364 143.606L174.65 155.434C174.324 156.007 174.436 156.726 174.919 157.176L175.953 158.131C176.437 158.58 177.167 158.637 177.712 158.266L188.984 150.658C188.04 151.208 185.877 150.309 183.915 148.494Z" fill="black"/>
<path d="M282.945 44.8403L287.148 55.2916L287.176 55.3647C287.485 56.1401 287.289 56.9942 286.743 57.5561L260.829 84.2913C260.345 84.7914 259.547 84.8027 259.047 84.3194C258.564 83.8474 258.536 83.0832 258.98 82.5775L283.625 54.6679L283.226 56.9324L278.731 46.6046C278.225 45.4471 278.759 44.0986 279.911 43.5985C281.068 43.0927 282.417 43.6266 282.917 44.7785C282.923 44.8009 282.934 44.8234 282.945 44.8403Z" fill="black"/>
<path d="M286.384 41.1994L276.101 52.3138L271.443 48.004L281.726 36.8896C282.872 35.6535 284.805 35.5748 286.041 36.7211L286.215 36.884C287.451 38.0303 287.53 39.9576 286.384 41.1994Z" fill="black"/>
<path d="M251.271 88.3207C252.614 86.9216 250.838 83.1288 247.287 79.8529C243.736 76.577 239.803 75.1048 238.51 76.5489" stroke="#FF788F" stroke-width="1.2" stroke-miterlimit="10" stroke-linecap="round" stroke-linejoin="round"/>
<path d="M269.999 43.6938C271.212 42.379 274.825 43.7444 278.067 46.7449C281.31 49.7455 282.95 53.2405 281.731 54.5497" fill="black"/>
<path d="M269.555 43.2781C270.769 41.9632 274.567 43.5028 278.034 46.7113C281.501 49.9197 283.327 53.5889 282.114 54.8982" stroke="white" stroke-width="1.2" stroke-miterlimit="10" stroke-linecap="round" stroke-linejoin="round"/>
<path d="M293.657 167.839C297.229 146.635 296.393 128.817 291.791 128.042C287.188 127.267 280.562 143.827 276.99 165.031C273.419 186.235 274.254 204.053 278.857 204.828C283.459 205.603 290.086 189.042 293.657 167.839Z" fill="black" stroke="#FF788F" stroke-width="1.2" stroke-miterlimit="10" stroke-linecap="round" stroke-linejoin="round"/>
<path d="M304.169 137.032C300.213 134.582 296.263 132.132 292.307 129.682C278.299 122.675 262.161 96.5695 242.584 92.5351C236.763 91.8158 219.518 90.2931 207.46 92.5351C203.189 93.451 180.151 96.4291 173.369 120.894C171.15 127.778 170.492 144.46 174.589 146.287C184.191 150.574 189.704 125.305 190.962 122.552C192.575 121.085 200.099 115.669 203.184 114.365C208.51 114.247 219.192 113.432 220.9 113.061L225.221 114.129C231.352 115.646 233.993 122.979 230.127 127.98C230.076 128.042 230.031 128.103 229.981 128.165C227.98 130.66 224.907 132.059 221.71 132.127C184.984 132.953 177.454 136.521 176.752 139.437C175.454 144.865 180.882 154.153 212.146 158.306C222.496 159.682 232.554 162.829 241.758 167.768C248.743 171.516 256.8 175.208 265.92 178.388C276.635 182.13 286.519 184.361 294.993 185.71" fill="#FF788F"/>
<path d="M189.698 98.8457C183.084 102.891 176.499 109.6 173.369 120.889C171.15 127.772 170.492 144.455 174.589 146.281C175.785 146.815 176.92 146.888 177.994 146.607C178.275 146.506 178.55 146.411 178.808 146.315C168.756 120.794 180.382 106.971 189.698 98.8457Z" fill="white"/>
<path d="M178.808 146.32C182.944 151.22 192.929 156.794 216.63 159.294C224.204 160.092 231.503 162.536 238.111 166.335C246.028 170.886 254.856 174.533 265.925 178.393C274.702 181.455 283.03 183.023 290.261 184.889C270.067 179.674 257.351 172.65 248.079 166.852C238.308 160.738 227.413 156.648 216.029 154.833C173.15 148.011 177.623 138.335 176.971 138.88C176.302 139.436 175.875 143.443 178.808 146.32Z" fill="white"/>
<path d="M186.867 134.774C190.811 108.095 219.198 113.433 220.901 113.062L224.986 114.073C231.054 115.573 233.886 122.755 230.24 127.829C230.155 127.947 230.065 128.065 229.981 128.171C227.981 130.666 224.907 132.06 221.71 132.133C184.99 132.959 177.455 136.527 176.758 139.443C175.471 144.837 180.815 154.036 211.534 158.227C222.558 159.733 233.195 163.273 243.045 168.448C249.732 171.96 257.363 175.405 265.932 178.394C276.647 182.136 286.531 184.367 295.004 185.716" stroke="black" stroke-width="1.2" stroke-miterlimit="10" stroke-linecap="round" stroke-linejoin="round"/>
<path d="M304.169 137.032C300.213 134.582 296.263 132.132 292.307 129.682C278.299 122.675 262.161 96.5695 242.584 92.5351C236.763 91.8158 219.518 90.2931 207.46 92.5351C203.189 93.451 180.151 96.4291 173.369 120.894C171.15 127.778 170.492 144.46 174.589 146.287C176.094 146.961 177.499 146.905 178.803 146.326" stroke="black" stroke-width="1.2" stroke-miterlimit="10" stroke-linecap="round" stroke-linejoin="round"/>
<path d="M336.292 142.792L292.306 128.211C296.464 130.166 297.122 147.343 293.705 167.65C290.149 188.75 283.541 205.219 278.939 204.444L322.924 219.025C323.087 219.104 323.25 219.16 323.424 219.194C328.026 219.969 334.64 203.494 338.191 182.4C341.742 161.306 340.894 143.567 336.292 142.792Z" fill="white" stroke="white" stroke-width="1.2" stroke-miterlimit="10" stroke-linecap="round" stroke-linejoin="round"/>
<path d="M327.891 180.821L326.503 179.209C326.166 178.815 325.576 178.77 325.183 179.108L313.962 188.744C311.995 187.132 309.478 186.165 306.735 186.165C300.431 186.165 295.318 191.278 295.318 197.583C295.318 203.887 300.431 209.001 306.735 209.001C313.04 209.001 318.153 203.887 318.153 197.583C318.153 195.465 317.563 193.487 316.557 191.784L327.784 182.142C328.183 181.805 328.228 181.215 327.891 180.821Z" fill="#FF788F"/>
<path d="M306.742 206.489C311.66 206.489 315.648 202.501 315.648 197.583C315.648 192.664 311.66 188.677 306.742 188.677C301.823 188.677 297.835 192.664 297.835 197.583C297.835 202.501 301.823 206.489 306.742 206.489Z" fill="white"/>
<path d="M302.999 191.313C302.622 191.537 299.942 193.195 299.425 196.555C298.818 200.46 301.684 203.09 301.892 203.276C301.628 201.764 301.431 199.707 301.645 197.297C301.864 194.808 302.454 192.768 302.999 191.313Z" fill="#FF788F" stroke="white" stroke-width="1.2" stroke-miterlimit="10"/>
<path d="M313.652 176.927L310.466 181.765" stroke="#FF788F" stroke-width="1.2" stroke-miterlimit="10" stroke-linecap="round" stroke-linejoin="round"/>
<path d="M305.286 168.993L305.135 165.638" stroke="#FF788F" stroke-width="1.2" stroke-miterlimit="10" stroke-linecap="round" stroke-linejoin="round"/>
<path d="M305.853 181.602L305.443 172.505" stroke="#FF788F" stroke-width="1.2" stroke-miterlimit="10" stroke-linecap="round" stroke-linejoin="round"/>
<path d="M298.835 177.163L301.167 182.265" stroke="#FF788F" stroke-width="1.2" stroke-miterlimit="10" stroke-linecap="round" stroke-linejoin="round"/>
<path d="M181.528 143.483C200.891 121.507 220.265 98.2609 239.634 76.2007C243.545 79.9317 247.456 83.6627 251.367 87.3657C230.644 107.931 209.91 129.952 189.187 150.759C187.259 152.052 185.326 153.333 183.399 154.603C181.415 153.232 179.438 151.866 177.454 150.495C178.814 148.169 180.174 145.831 181.528 143.483Z" fill="black"/>
<path d="M201.177 119.731C202.132 118.697 205.183 119.972 207.993 122.568C210.802 125.164 212.308 128.114 211.353 129.143" fill="black"/>
<path d="M201.177 119.731C202.132 118.697 205.183 119.972 207.993 122.568C210.802 125.164 212.308 128.114 211.353 129.143" stroke="#FF788F" stroke-width="1.2" stroke-miterlimit="10" stroke-linecap="round" stroke-linejoin="round"/>
<path d="M269.998 43.6938L239.465 75.5367C238.111 76.9527 239.909 80.7961 243.494 84.1114C247.079 87.4266 251.051 88.9212 252.355 87.4603L281.737 54.5497L269.998 43.6938Z" fill="black"/>
<path d="M176.308 157.945L173.026 161.491C172.728 161.817 172.223 161.834 171.897 161.536L171.852 161.496C171.526 161.199 171.509 160.693 171.807 160.367L175.088 156.821L176.308 157.945Z" fill="black"/>
<path d="M181.517 143.381L181.505 143.37L181.427 143.505C181.455 143.46 181.483 143.421 181.517 143.381Z" fill="black"/>
<path d="M189.214 150.506L189.203 150.495C189.169 150.534 189.124 150.562 189.085 150.596L189.214 150.506Z" fill="black"/>
<path d="M183.915 148.494C181.954 146.679 180.892 144.595 181.364 143.606L174.65 155.434C174.324 156.007 174.436 156.726 174.919 157.176L175.953 158.131C176.437 158.58 177.167 158.637 177.712 158.266L188.984 150.658C188.04 151.208 185.877 150.309 183.915 148.494Z" fill="black"/>
<path d="M282.945 44.8403L287.148 55.2916L287.176 55.3647C287.485 56.1401 287.289 56.9942 286.743 57.5561L260.829 84.2913C260.345 84.7914 259.547 84.8027 259.047 84.3194C258.564 83.8474 258.536 83.0832 258.98 82.5775L283.625 54.6679L283.226 56.9324L278.731 46.6046C278.225 45.4471 278.759 44.0986 279.911 43.5985C281.068 43.0927 282.417 43.6266 282.917 44.7785C282.923 44.8009 282.934 44.8234 282.945 44.8403Z" fill="black"/>
<path d="M286.384 41.1994L276.101 52.3138L271.443 48.004L281.726 36.8896C282.872 35.6535 284.805 35.5748 286.041 36.7211L286.215 36.884C287.451 38.0303 287.53 39.9576 286.384 41.1994Z" fill="black"/>
<path d="M251.271 88.3207C252.614 86.9216 250.838 83.1288 247.287 79.8529C243.736 76.577 239.803 75.1048 238.51 76.5489" stroke="#FF788F" stroke-width="1.2" stroke-miterlimit="10" stroke-linecap="round" stroke-linejoin="round"/>
<path d="M269.999 43.6938C271.212 42.379 274.825 43.7444 278.067 46.7449C281.31 49.7455 282.95 53.2405 281.731 54.5497" fill="black"/>
<path d="M269.555 43.2781C270.769 41.9632 274.567 43.5028 278.034 46.7113C281.501 49.9197 283.327 53.5889 282.114 54.8982" stroke="white" stroke-width="1.2" stroke-miterlimit="10" stroke-linecap="round" stroke-linejoin="round"/>
</g>
</svg>
